<svg width="151" height="71" viewBox="0 0 151 71" fill="none" xmlns="http://www.w3.org/2000/svg">
<g clip-path="url(#clip0_2826_4739)">
<path d="M50.5554 3.29318L43.5868 4.75682L43.5547 27.4114C43.5547 31.5955 46.7412 34.3 50.9739 34.3C53.3236 34.3 55.0456 33.8705 55.9951 33.3614V27.9841C55.0778 28.35 50.5715 29.6546 50.5715 25.4864V15.4318H55.9951V9.41818H50.5715L50.5554 3.29318ZM64.895 11.5023L64.4604 9.41818H58.2804V33.7909H65.41V17.3886C67.0998 15.1932 69.9484 15.6227 70.8658 15.9091V9.41818C69.9001 9.08409 66.5687 8.46364 64.895 11.5023ZM79.7495 0L72.5717 1.51136V7.27045L79.7495 5.75909V0ZM31.2268 16.5932C31.2268 15.4955 32.1603 15.0659 33.657 15.05C35.8297 15.05 38.5978 15.7023 40.7704 16.8636V10.2136C38.4047 9.29091 36.0389 8.925 33.6731 8.925C27.8793 8.925 24.0168 11.9159 24.0168 16.9114C24.0168 24.7386 34.8801 23.4659 34.8801 26.8386C34.8801 28.1432 33.7375 28.5727 32.1442 28.5727C29.7784 28.5727 26.7206 27.6023 24.3226 26.3136V32.6773C26.9781 33.8068 29.6658 34.2841 32.1281 34.2841C38.0667 34.2841 42.1545 31.7705 42.1545 26.6796C42.1545 18.2636 31.2268 19.775 31.2268 16.5932ZM127.001 21.8909C127.001 14.6523 123.46 8.94091 116.669 8.94091C109.877 8.94091 105.741 14.6523 105.741 21.8432C105.741 30.3545 110.617 34.2841 117.57 34.2841C120.982 34.2841 123.541 33.5205 125.488 32.4545V27.1409C123.541 28.1114 121.304 28.7 118.471 28.7C115.687 28.7 113.241 27.7295 112.919 24.4205H126.904C126.936 24.0545 127.001 22.575 127.001 21.8909ZM112.854 19.2182C112.854 16.0364 114.834 14.7 116.62 14.7C118.375 14.7 120.241 16.0364 120.241 19.2182H112.854ZM94.6845 8.94091C91.8842 8.94091 90.0817 10.2455 89.0839 11.1523L88.7137 9.40227H82.4211V41.9841L89.5667 40.4886L89.5828 32.5023C90.6128 33.25 92.1417 34.2841 94.6362 34.2841C99.754 34.2841 104.421 30.5932 104.421 21.6205C104.437 13.4114 99.7058 8.94091 94.6845 8.94091ZM92.9786 28.4296C91.3048 28.4296 90.307 27.825 89.615 27.0932L89.5667 16.5932C90.307 15.7818 91.337 15.1932 92.9786 15.1932C95.5858 15.1932 97.3883 18.0886 97.3883 21.7795C97.4044 25.5818 95.634 28.4296 92.9786 28.4296ZM72.5878 33.7909H79.7656V9.41818H72.5878V33.7909Z" fill="#737373"/>
</g>
<rect x="0.5" y="0.5" width="150" height="70" stroke="black"/>
<defs>
<clipPath id="clip0_2826_4739">
<rect width="103" height="42" fill="white" transform="translate(24)"/>
</clipPath>
</defs>
</svg>
