<svg width="84" height="59" viewBox="0 0 84 59" fill="none" xmlns="http://www.w3.org/2000/svg">
<g clip-path="url(#clip0_2826_4734)">
<path d="M0.5 0.995296H13.1121V35.0099C13.1121 40.4047 15.5437 43.6155 17.5215 44.9519C15.4627 46.761 9.22148 48.3583 4.52031 44.4956C1.76445 42.2138 0.5 38.4163 0.5 34.8795V0.995296ZM79.2689 29.2729V25.6873H83.1272V13.1702H78.8961C77.2588 5.62403 70.5961 0.017395 62.6365 0.017395C53.4611 0.017395 45.9879 7.51463 45.9879 16.7558V45.9624C48.5816 46.3373 51.7266 45.9135 54.3689 43.6807C57.141 41.3989 58.3893 37.6177 58.3893 34.0646V32.9726H64.6791V20.4555H58.3893V16.658C58.3893 11.0188 66.8514 11.0188 66.8514 16.658V29.224C66.8514 38.4489 74.3084 45.9624 83.5 45.9624V33.4942C81.1494 33.4942 79.2689 31.5873 79.2689 29.2729ZM31.5602 13.1376V31.5547C31.5602 34.0646 27.702 34.0646 27.702 31.5547V13.1376H15.252V34.7655C15.252 38.6445 16.5488 43.5666 22.5469 45.1801C28.5449 46.7773 31.9816 43.4525 31.9816 43.4525C31.6412 45.6365 29.6311 47.25 26.324 47.576C23.8113 47.8367 20.6178 46.9892 19.0291 46.3047V57.7624C23.098 58.9848 27.3777 59.3597 31.6088 58.5284C39.2441 57.0453 44.0588 50.64 44.0588 42.0997V13.0561H31.5602V13.1376Z" fill="#737373"/>
</g>
<defs>
<clipPath id="clip0_2826_4734">
<rect width="83" height="59" fill="white" transform="translate(0.5)"/>
</clipPath>
</defs>
</svg>
