<svg width="81" height="59" viewBox="0 0 81 59" fill="none" xmlns="http://www.w3.org/2000/svg">
<g clip-path="url(#clip0_2826_4737)">
<path d="M80.6199 0.114685C70.4896 6.94492 69.4114 11.9019 68.5337 13.4184C67.6937 14.973 67.0668 21.1024 65.6125 24.0715C64.1456 27.0788 58.8172 29.449 57.3252 30.443C55.8583 31.4369 53.7771 35.2981 52.072 38.624C38.519 38.0633 31.0842 43.5682 19.5748 50.5514C23.2608 49.3153 25.0035 48.4233 25.0035 48.4233C36.8139 43.8358 42.4683 39.7199 60.2464 42.1538C60.3844 42.1538 60.4846 42.2302 60.5975 42.2557C61.0864 42.5361 61.262 43.135 60.9862 43.632L54.2284 55.8397C53.915 56.4387 53.2505 56.7572 52.586 56.6171C36.6885 53.5842 24.1384 58.8216 12.6039 58.9873C3.40142 59.1274 0.379883 54.7184 0.379883 54.5145C0.379883 54.3743 0.455108 54.2978 0.59302 54.2978C0.59302 54.2978 5.39488 54.2978 13.5192 52.3482C22.7468 34.4698 30.9714 28.213 39.9232 28.213C39.9232 28.213 48.9125 28.213 51.2821 36.1009C54.1407 31.0419 54.8302 29.8313 54.8302 29.8313C55.4947 28.6335 59.2184 19.9937 65.6626 11.8127C72.1195 3.65723 76.9965 1.6311 80.6199 0.114685Z" fill="#737373"/>
</g>
<defs>
<clipPath id="clip0_2826_4737">
<rect width="80.24" height="59" fill="white" transform="translate(0.379883)"/>
</clipPath>
</defs>
</svg>
