<svg width="14" height="14" viewBox="0 0 14 14" fill="none" xmlns="http://www.w3.org/2000/svg">
<path d="M6.99934 13.6667C3.70379 13.6232 1.04278 10.9622 0.999344 7.66668C1.04278 4.37113 3.70379 1.71011 6.99934 1.66668C10.2949 1.71011 12.9559 4.37113 12.9993 7.66668C12.9559 10.9622 10.2949 13.6232 6.99934 13.6667ZM6.99934 3.00001C4.43612 3.03376 2.36642 5.10346 2.33268 7.66668C2.36642 10.2299 4.43612 12.2996 6.99934 12.3333C9.56256 12.2996 11.6323 10.2299 11.666 7.66668C11.6323 5.10346 9.56256 3.03376 6.99934 3.00001ZM10.3327 8.33334H6.33268V4.33334H7.66601V7.00001H10.3327V8.33334ZM12.5273 3.47201L10.5213 1.47201L11.4607 0.527344L13.4673 2.52734L12.5273 3.47134V3.47201ZM1.47068 3.47201L0.527344 2.52734L2.52134 0.527344L3.46468 1.47201L1.47201 3.47201H1.47068Z" fill="#23A6F0"/>
</svg>
