<svg width="20" height="20" viewBox="0 0 20 20" fill="none" xmlns="http://www.w3.org/2000/svg">
<path d="M19.1116 7.41256C19.054 7.24274 18.9479 7.09353 18.8064 6.98335C18.6649 6.87316 18.4942 6.80681 18.3155 6.79251L13.0863 6.377L10.8235 1.36798C10.7515 1.20665 10.6342 1.06963 10.486 0.973442C10.3378 0.877257 10.1649 0.826025 9.98821 0.825928C9.81152 0.825831 9.63857 0.876874 9.49025 0.972896C9.34192 1.06892 9.22456 1.20582 9.15232 1.36707L6.8895 6.377L1.66035 6.79251C1.48466 6.80642 1.3167 6.87066 1.17656 6.97754C1.03642 7.08442 0.93004 7.2294 0.870145 7.39516C0.81025 7.56091 0.799375 7.74041 0.838823 7.91218C0.878271 8.08395 0.96637 8.24072 1.09258 8.36373L4.95689 12.1308L3.59021 18.0488C3.54871 18.2279 3.56201 18.4154 3.62838 18.5869C3.69476 18.7584 3.81114 18.9059 3.96242 19.0105C4.11371 19.115 4.29292 19.1716 4.47679 19.173C4.66067 19.1744 4.84072 19.1205 4.99358 19.0183L9.98792 15.6888L14.9823 19.0183C15.1385 19.1221 15.3228 19.1755 15.5102 19.1713C15.6977 19.1672 15.8795 19.1058 16.031 18.9953C16.1826 18.8848 16.2966 18.7306 16.3579 18.5533C16.4192 18.3761 16.4247 18.1843 16.3737 18.0039L14.6961 12.1336L18.8567 8.38941C19.1291 8.14359 19.2291 7.76019 19.1116 7.41256Z" fill="#F3CD03"/>
</svg>
