<svg width="20" height="20" viewBox="0 0 20 20" fill="none" xmlns="http://www.w3.org/2000/svg">
<path d="M4.99772 12.1308L3.63104 18.0488C3.58872 18.228 3.60143 18.4158 3.6675 18.5877C3.73357 18.7596 3.84993 18.9075 4.00139 19.0122C4.15286 19.1169 4.33237 19.1735 4.5165 19.1746C4.70062 19.1757 4.8808 19.1212 5.03349 19.0183L10.0278 15.6888L15.0222 19.0183C15.1784 19.1221 15.3627 19.1755 15.5502 19.1714C15.7377 19.1673 15.9194 19.1058 16.0709 18.9953C16.2225 18.8849 16.3365 18.7306 16.3978 18.5534C16.4591 18.3761 16.4646 18.1844 16.4136 18.0039L14.736 12.1336L18.8966 8.38944C19.0298 8.26946 19.125 8.11304 19.1703 7.93955C19.2156 7.76605 19.209 7.58308 19.1515 7.41327C19.0939 7.24345 18.9878 7.09424 18.8463 6.98408C18.7048 6.87392 18.5342 6.80764 18.3554 6.79345L13.1263 6.37703L10.8634 1.36801C10.7913 1.20672 10.674 1.06976 10.5257 0.973657C10.3774 0.877554 10.2045 0.826416 10.0278 0.826416C9.85114 0.826416 9.67822 0.877554 9.52995 0.973657C9.38168 1.06976 9.26439 1.20672 9.19223 1.36801L6.92942 6.37703L1.70027 6.79254C1.52457 6.80645 1.35661 6.87069 1.21647 6.97757C1.07634 7.08445 0.969957 7.22943 0.910062 7.39518C0.850167 7.56094 0.839292 7.74044 0.87874 7.91221C0.918188 8.08398 1.00629 8.24074 1.1325 8.36376L4.99772 12.1308ZM7.61459 8.16288C7.77831 8.14998 7.93555 8.09328 8.06982 7.99871C8.20409 7.90414 8.31044 7.77519 8.37773 7.62538L10.0278 3.97387L11.6779 7.62538C11.7452 7.77519 11.8516 7.90414 11.9859 7.99871C12.1201 8.09328 12.2774 8.14998 12.4411 8.16288L16.0843 8.45181L13.0841 11.1521C12.8236 11.387 12.7199 11.7484 12.8153 12.0859L13.9646 16.108L10.5378 13.8231C10.3874 13.7222 10.2104 13.6683 10.0292 13.6683C9.84806 13.6683 9.67101 13.7222 9.5206 13.8231L5.93972 16.2107L6.90282 12.0409C6.93813 11.8876 6.93339 11.7277 6.88906 11.5767C6.84472 11.4257 6.76228 11.2887 6.64966 11.1787L3.8631 8.4619L7.61459 8.16288Z" fill="#F3CD03"/>
</svg>
