<svg width="30" height="30" viewBox="0 0 30 30" fill="none" xmlns="http://www.w3.org/2000/svg">
<g clip-path="url(#clip0_2823_3887)">
<path d="M15 7.30887C10.7438 7.30887 7.30879 10.7439 7.30879 15.0001C7.30879 19.2564 10.7438 22.6914 15 22.6914C19.2563 22.6914 22.6913 19.2564 22.6913 15.0001C22.6913 10.7439 19.2563 7.30887 15 7.30887ZM15 19.9989C12.2475 19.9989 10.0013 17.7526 10.0013 15.0001C10.0013 12.2476 12.2475 10.0014 15 10.0014C17.7525 10.0014 19.9988 12.2476 19.9988 15.0001C19.9988 17.7526 17.7525 19.9989 15 19.9989ZM23.0063 5.20137C22.0126 5.20137 21.21 6.00387 21.21 6.99762C21.21 7.99137 22.0126 8.79387 23.0063 8.79387C24.0001 8.79387 24.8026 7.99512 24.8026 6.99762C24.8029 6.76165 24.7566 6.52794 24.6664 6.30988C24.5763 6.09181 24.444 5.89368 24.2771 5.72682C24.1102 5.55996 23.9121 5.42766 23.694 5.3375C23.476 5.24733 23.2423 5.20107 23.0063 5.20137ZM29.9926 15.0001C29.9926 12.9301 30.0113 10.8789 29.8951 8.81262C29.7788 6.41262 29.2313 4.28262 27.4763 2.52762C25.7176 0.768869 23.5913 0.225119 21.1913 0.108869C19.1213 -0.00738074 17.07 0.0113693 15.0038 0.0113693C12.9338 0.0113693 10.8825 -0.00738074 8.81629 0.108869C6.41629 0.225119 4.28628 0.772619 2.53128 2.52762C0.772532 4.28637 0.228782 6.41262 0.112531 8.81262C-0.00371864 10.8826 0.0150314 12.9339 0.0150314 15.0001C0.0150314 17.0664 -0.00371864 19.1214 0.112531 21.1876C0.228782 23.5876 0.776282 25.7176 2.53128 27.4726C4.29004 29.2314 6.41629 29.7751 8.81629 29.8914C10.8863 30.0076 12.9375 29.9889 15.0038 29.9889C17.0738 29.9889 19.125 30.0076 21.1913 29.8914C23.5913 29.7751 25.7213 29.2276 27.4763 27.4726C29.2351 25.7139 29.7788 23.5876 29.8951 21.1876C30.0151 19.1214 29.9926 17.0701 29.9926 15.0001ZM26.6926 23.8426C26.4188 24.5251 26.0888 25.0351 25.5601 25.5601C25.0313 26.0889 24.5251 26.4189 23.8426 26.6926C21.8701 27.4764 17.1863 27.3001 15 27.3001C12.8138 27.3001 8.12629 27.4764 6.15379 26.6964C5.47129 26.4226 4.96129 26.0926 4.43629 25.5639C3.90753 25.0351 3.57753 24.5289 3.30378 23.8464C2.52378 21.8701 2.70003 17.1864 2.70003 15.0001C2.70003 12.8139 2.52378 8.12637 3.30378 6.15387C3.57753 5.47137 3.90753 4.96137 4.43629 4.43637C4.96504 3.91137 5.47129 3.57762 6.15379 3.30387C8.12629 2.52387 12.8138 2.70012 15 2.70012C17.1863 2.70012 21.8738 2.52387 23.8463 3.30387C24.5288 3.57762 25.0388 3.90762 25.5638 4.43637C26.0926 4.96512 26.4226 5.47137 26.6963 6.15387C27.4763 8.12637 27.3001 12.8139 27.3001 15.0001C27.3001 17.1864 27.4763 21.8701 26.6926 23.8426Z" fill="#263238"/>
</g>
<defs>
<clipPath id="clip0_2823_3887">
<rect width="30" height="30" fill="white"/>
</clipPath>
</defs>
</svg>
