<svg width="30" height="25" viewBox="0 0 30 25" fill="none" xmlns="http://www.w3.org/2000/svg">
<g clip-path="url(#clip0_2823_3882)">
<path d="M30 2.98253C28.8766 3.4802 27.685 3.80686 26.4649 3.95167C27.7358 3.18995 28.7116 1.98374 29.1711 0.546553C27.963 1.26349 26.6412 1.76862 25.2628 2.04011C24.14 0.843974 22.5405 0.0964355 20.7702 0.0964355C17.3711 0.0964355 14.6152 2.85222 14.6152 6.25112C14.6152 6.73358 14.6696 7.20327 14.7745 7.65386C9.6593 7.3971 5.12414 4.94683 2.0884 1.22308C1.55871 2.1321 1.2552 3.18948 1.2552 4.31729C1.2552 6.45268 2.34188 8.33647 3.99328 9.44026C3.01588 9.40965 2.05998 9.14566 1.20539 8.67034C1.20504 8.69612 1.20504 8.7219 1.20504 8.7478C1.20504 11.7299 3.3266 14.2175 6.14215 14.783C5.2358 15.0294 4.28511 15.0655 3.3627 14.8884C4.14586 17.3337 6.41895 19.113 9.11215 19.1628C7.0057 20.8135 4.35176 21.7976 1.46824 21.7976C0.971367 21.7976 0.481523 21.7684 0 21.7115C2.72379 23.4579 5.95898 24.4768 9.43477 24.4768C20.7559 24.4768 26.9466 15.0982 26.9466 6.96491C26.9466 6.69796 26.9407 6.43253 26.9288 6.16862C28.1337 5.29755 29.1737 4.21864 30 2.98253Z" fill="#263238"/>
</g>
<defs>
<clipPath id="clip0_2823_3882">
<rect width="30" height="24.4922" fill="white"/>
</clipPath>
</defs>
</svg>
