<svg width="30" height="30" viewBox="0 0 30 30" fill="none" xmlns="http://www.w3.org/2000/svg">
<g clip-path="url(#clip0_2823_3889)">
<path d="M25.5784 25.4624H21.1507V18.5282C21.1507 16.8747 21.1211 14.7461 18.8478 14.7461C16.5416 14.7461 16.1888 16.5477 16.1888 18.4078V25.4619H11.7611V11.2024H16.0117V13.1512H16.0712C16.4966 12.4238 17.1113 11.8254 17.8498 11.4198C18.5884 11.0142 19.4231 10.8165 20.2651 10.8477C24.7529 10.8477 25.5803 13.7996 25.5803 17.6398L25.5784 25.4624ZM6.76502 9.25338C5.34591 9.25361 4.19529 8.10334 4.19505 6.68423C4.19482 5.26513 5.34498 4.11451 6.76408 4.11427C8.18319 4.11392 9.33381 5.26419 9.33404 6.6833C9.33417 7.36478 9.06357 8.0184 8.58179 8.50038C8.10001 8.98236 7.4465 9.25322 6.76502 9.25338ZM8.97894 25.4625H4.54653V11.2024H8.97883V25.4624L8.97894 25.4625ZM27.7858 0.00217493H2.32163C1.11813 -0.0113659 0.131163 0.952719 0.116455 2.15622V27.7266C0.130696 28.9307 1.11754 29.8957 2.32151 29.8831H27.7858C28.9923 29.898 29.983 28.933 29.9997 27.7266V2.15424C29.9826 0.9484 28.9917 -0.0155683 27.7858 0.000190493" fill="#263238"/>
</g>
<defs>
<clipPath id="clip0_2823_3889">
<rect width="30" height="29.8833" fill="white"/>
</clipPath>
</defs>
</svg>
