<svg width="30" height="30" viewBox="0 0 30 30" fill="none" xmlns="http://www.w3.org/2000/svg">
<g clip-path="url(#clip0_2823_3867)">
<path d="M28.3443 30.0001C29.2586 30.0001 30 29.2588 30 28.3444V1.65574C30 0.741211 29.2586 0 28.3443 0H1.65574C0.741094 0 0 0.741211 0 1.65574V28.3444C0 29.2588 0.741094 30.0001 1.65574 30.0001H28.3443Z" fill="white"/>
<path d="M20.6994 30.0001V18.3824H24.5991L25.1829 13.8549H20.6994V10.9641C20.6994 9.65327 21.0635 8.75995 22.9433 8.75995L25.3409 8.7589V4.70948C24.926 4.65429 23.5029 4.53101 21.8473 4.53101C18.3905 4.53101 16.024 6.64097 16.024 10.5159V13.8549H12.1144V18.3824H16.024V30.0001H20.6994Z" fill="#473BF0"/>
</g>
<defs>
<clipPath id="clip0_2823_3867">
<rect width="30" height="30.0001" fill="white"/>
</clipPath>
</defs>
</svg>
