<svg width="30" height="25" viewBox="0 0 30 25" fill="none" xmlns="http://www.w3.org/2000/svg">
<path d="M30 2.98241C28.8766 3.48007 27.685 3.80674 26.4649 3.95155C27.7358 3.18983 28.7116 1.98362 29.1711 0.546431C27.963 1.26337 26.6412 1.76849 25.2628 2.03998C24.14 0.843852 22.5405 0.0963135 20.7702 0.0963135C17.3711 0.0963135 14.6152 2.85209 14.6152 6.251C14.6152 6.73346 14.6696 7.20315 14.7745 7.65373C9.6593 7.39698 5.12414 4.9467 2.0884 1.22295C1.55871 2.13198 1.2552 3.18936 1.2552 4.31717C1.2552 6.45256 2.34188 8.33635 3.99328 9.44014C3.01588 9.40953 2.05998 9.14554 1.20539 8.67022C1.20504 8.696 1.20504 8.72178 1.20504 8.74768C1.20504 11.7297 3.3266 14.2174 6.14215 14.7828C5.2358 15.0293 4.28511 15.0654 3.3627 14.8883C4.14586 17.3335 6.41895 19.1129 9.11215 19.1627C7.0057 20.8134 4.35176 21.7974 1.46824 21.7974C0.971367 21.7974 0.481523 21.7683 0 21.7114C2.72379 23.4578 5.95898 24.4767 9.43477 24.4767C20.7559 24.4767 26.9466 15.0981 26.9466 6.96479C26.9466 6.69784 26.9407 6.43241 26.9288 6.1685C28.1337 5.29743 29.1737 4.21852 30 2.98241" fill="white"/>
</svg>
