<svg width="24" height="20" viewBox="0 0 24 20" fill="none" xmlns="http://www.w3.org/2000/svg">
<path d="M8.41075 19C16.713 19 21.2546 12.0731 21.2546 6.07666C21.2546 5.88282 21.2546 5.68622 21.2464 5.49238C22.1306 4.84786 22.8937 4.0499 23.5 3.13589C22.6741 3.50259 21.7988 3.74427 20.9026 3.85308C21.8466 3.28492 22.5536 2.39097 22.8923 1.33737C22.0054 1.86644 21.0346 2.23784 20.0226 2.43531C19.3423 1.70569 18.4419 1.22234 17.4611 1.06013C16.4803 0.897915 15.4737 1.06589 14.5973 1.53804C13.7209 2.0102 13.0236 2.76017 12.6134 3.67179C12.2031 4.58342 12.1029 5.60582 12.3281 6.58063C10.5334 6.49002 8.77762 6.02054 7.17468 5.20266C5.57175 4.38477 4.15744 3.23675 3.0235 1.83304C2.44784 2.83418 2.27216 4.0184 2.53214 5.14523C2.79211 6.27206 3.46825 7.25702 4.42325 7.9001C3.70762 7.87562 3.00772 7.68212 2.38 7.33521V7.39751C2.38123 8.44627 2.74205 9.46244 3.40145 10.2743C4.06086 11.0861 4.9784 11.6437 5.999 11.853C5.61161 11.9604 5.21144 12.014 4.80963 12.0122C4.52635 12.0131 4.24365 11.9866 3.96537 11.9333C4.25383 12.8361 4.8155 13.6254 5.57171 14.1907C6.32793 14.7561 7.24081 15.069 8.1825 15.0859C6.58276 16.3511 4.60668 17.0373 2.5725 17.0339C2.21407 17.0354 1.85588 17.0146 1.5 16.9716C3.56458 18.297 5.96228 19.0007 8.41075 19Z" fill="#23A6F0"/>
</svg>
