<svg width="24" height="25" viewBox="0 0 24 25" fill="none" xmlns="http://www.w3.org/2000/svg">
<g clip-path="url(#clip0_2834_5095)">
<path d="M18.8481 12.9767C18.7367 12.8652 18.6045 12.7767 18.4589 12.7163C18.3133 12.656 18.1573 12.6249 17.9997 12.6249C17.8421 12.6249 17.686 12.656 17.5405 12.7163C17.3949 12.7767 17.2626 12.8652 17.1513 12.9767L15.2385 14.8895C14.3517 14.6255 12.6969 14.0255 11.6482 12.9767C10.5994 11.9279 9.99938 10.2731 9.73538 9.38635L11.6482 7.47357C11.7597 7.36223 11.8482 7.22998 11.9085 7.08441C11.9689 6.93883 12 6.78278 12 6.62518C12 6.46758 11.9689 6.31153 11.9085 6.16595C11.8482 6.02038 11.7597 5.88813 11.6482 5.77679L6.84821 0.976838C6.73686 0.865304 6.60462 0.776819 6.45904 0.716447C6.31347 0.656075 6.15741 0.625 5.99982 0.625C5.84222 0.625 5.68616 0.656075 5.54059 0.716447C5.39501 0.776819 5.26277 0.865304 5.15142 0.976838L1.89706 4.23121C1.44106 4.6872 1.18426 5.31359 1.19386 5.95319C1.22146 7.66197 1.67386 13.5971 6.35141 18.2747C11.029 22.9522 16.9641 23.4034 18.6741 23.4322H18.7077C19.3413 23.4322 19.9401 23.1826 20.3937 22.729L23.648 19.4747C23.7596 19.3633 23.8481 19.2311 23.9084 19.0855C23.9688 18.9399 23.9999 18.7839 23.9999 18.6263C23.9999 18.4687 23.9688 18.3126 23.9084 18.167C23.8481 18.0215 23.7596 17.8892 23.648 17.7779L18.8481 12.9767ZM18.6957 21.031C17.1981 21.0058 12.0742 20.6038 8.04819 16.5767C4.00904 12.5375 3.61784 7.39557 3.59384 5.92799L5.99982 3.52201L9.10298 6.62518L7.5514 8.17677C7.41036 8.3177 7.30665 8.49157 7.24967 8.68264C7.19268 8.87372 7.1842 9.07598 7.225 9.27115C7.2538 9.40915 7.9582 12.6815 9.95018 14.6735C11.9422 16.6655 15.2145 17.3699 15.3525 17.3987C15.5476 17.4406 15.75 17.4328 15.9413 17.376C16.1325 17.3192 16.3064 17.2151 16.4469 17.0735L17.9997 15.5219L21.1029 18.6251L18.6957 21.031Z" fill="#23A6F0"/>
</g>
<defs>
<clipPath id="clip0_2834_5095">
<rect width="24" height="24" fill="white" transform="translate(0 0.625)"/>
</clipPath>
</defs>
</svg>
