<svg width="24" height="27" viewBox="0 0 24 27" fill="none" xmlns="http://www.w3.org/2000/svg">
<g clip-path="url(#clip0_2834_5103)">
<path fill-rule="evenodd" clip-rule="evenodd" d="M-0.91875 6.59167C-0.75492 5.8554 -0.352185 5.19802 0.223498 4.72718C0.79918 4.25634 1.51369 3.99995 2.25 4H21.75C22.4863 3.99995 23.2008 4.25634 23.7765 4.72718C24.3522 5.19802 24.7549 5.8554 24.9187 6.59167L12 14.69L-0.91875 6.59167ZM-1 8.495V20.335L8.42988 14.405L-1 8.495ZM9.98663 15.3833L-0.689625 22.095C-0.425844 22.6655 -0.00951922 23.1474 0.510895 23.4846C1.03131 23.8219 1.63441 24.0006 2.25 24H21.75C22.3655 24.0001 22.9684 23.821 23.4885 23.4835C24.0086 23.1459 24.4246 22.6639 24.688 22.0933L14.0118 15.3817L12 16.6433L9.98663 15.3817V15.3833ZM15.5701 14.4067L25 20.335V8.495L15.5701 14.405V14.4067Z" fill="#23A6F0"/>
</g>
<defs>
<clipPath id="clip0_2834_5103">
<rect width="24" height="26" fill="white" transform="translate(0 0.874664)"/>
</clipPath>
</defs>
</svg>
