<svg width="30" height="30" viewBox="0 0 30 30" fill="none" xmlns="http://www.w3.org/2000/svg">
<path d="M15 7.30875C10.7438 7.30875 7.30879 10.7437 7.30879 15C7.30879 19.2562 10.7438 22.6912 15 22.6912C19.2563 22.6912 22.6913 19.2562 22.6913 15C22.6913 10.7437 19.2563 7.30875 15 7.30875ZM15 19.9987C12.2475 19.9987 10.0013 17.7525 10.0013 15C10.0013 12.2475 12.2475 10.0012 15 10.0012C17.7525 10.0012 19.9988 12.2475 19.9988 15C19.9988 17.7525 17.7525 19.9987 15 19.9987ZM23.0063 5.20125C22.0126 5.20125 21.21 6.00375 21.21 6.9975C21.21 7.99125 22.0126 8.79375 23.0063 8.79375C24.0001 8.79375 24.8026 7.995 24.8026 6.9975C24.8028 6.76153 24.7566 6.52782 24.6664 6.30975C24.5763 6.09169 24.444 5.89355 24.2771 5.7267C24.1102 5.55984 23.9121 5.42754 23.694 5.33738C23.476 5.24721 23.2423 5.20095 23.0063 5.20125ZM29.9926 15C29.9926 12.93 30.0113 10.8787 29.8951 8.8125C29.7788 6.4125 29.2313 4.2825 27.4763 2.5275C25.7176 0.768747 23.5913 0.224997 21.1913 0.108747C19.1213 -0.00750281 17.07 0.0112473 15.0038 0.0112473C12.9338 0.0112473 10.8825 -0.00750281 8.81629 0.108747C6.41629 0.224997 4.28629 0.772497 2.53128 2.5275C0.772532 4.28625 0.228782 6.4125 0.112531 8.8125C-0.00371864 10.8825 0.0150314 12.9337 0.0150314 15C0.0150314 17.0662 -0.00371864 19.1212 0.112531 21.1875C0.228782 23.5875 0.776282 25.7175 2.53128 27.4725C4.29004 29.2313 6.41629 29.775 8.81629 29.8913C10.8863 30.0075 12.9375 29.9888 15.0038 29.9888C17.0738 29.9888 19.125 30.0075 21.1913 29.8913C23.5913 29.775 25.7213 29.2275 27.4763 27.4725C29.2351 25.7137 29.7788 23.5875 29.8951 21.1875C30.0151 19.1212 29.9926 17.07 29.9926 15ZM26.6926 23.8425C26.4188 24.525 26.0888 25.035 25.5601 25.56C25.0313 26.0887 24.5251 26.4188 23.8426 26.6925C21.8701 27.4763 17.1863 27.3 15 27.3C12.8138 27.3 8.12629 27.4763 6.15379 26.6963C5.47129 26.4225 4.96129 26.0925 4.43629 25.5638C3.90754 25.035 3.57753 24.5288 3.30378 23.8463C2.52378 21.87 2.70003 17.1862 2.70003 15C2.70003 12.8137 2.52378 8.12625 3.30378 6.15375C3.57753 5.47125 3.90754 4.96125 4.43629 4.43625C4.96504 3.91125 5.47129 3.5775 6.15379 3.30375C8.12629 2.52375 12.8138 2.7 15 2.7C17.1863 2.7 21.8738 2.52375 23.8463 3.30375C24.5288 3.5775 25.0388 3.9075 25.5638 4.43625C26.0926 4.965 26.4226 5.47125 26.6963 6.15375C27.4763 8.12625 27.3001 12.8137 27.3001 15C27.3001 17.1862 27.4763 21.87 26.6926 23.8425Z" fill="#55ACEE"/>
</svg>
