<svg width="142" height="99" viewBox="0 0 142 99" fill="none" xmlns="http://www.w3.org/2000/svg">
<path d="M0.683446 98.0358L5.25435 72.3245C6.58753 64.5159 9.34911 56.2311 13.5391 47.4702C17.8243 38.6141 23.2999 30.0913 29.9658 21.9017C36.7269 13.617 44.4879 6.42732 53.2488 0.332788L68.6756 15.1882C61.5336 23.7587 54.9153 32.71 48.8208 42.0423C42.8215 51.2793 38.9648 61.1829 37.2507 71.7531L32.6798 98.0358H0.683446ZM73.8179 98.0358L78.3888 72.3245C79.722 64.5159 82.4835 56.2311 86.6735 47.4702C90.9588 38.6141 96.4343 30.0913 103.1 21.9017C109.861 13.617 117.622 6.42732 126.383 0.332788L141.81 15.1882C134.668 23.7587 128.05 32.71 121.955 42.0423C115.956 51.2793 112.099 61.1829 110.385 71.7531L105.814 98.0358H73.8179Z" fill="white"/>
</svg>
