<svg width="14" height="14" viewBox="0 0 14 14" fill="none" xmlns="http://www.w3.org/2000/svg">
<path d="M14 2.307L13.3425 2.5255C12.4214 2.81404 11.4649 2.97373 10.5 3C9.633 3 8.839 2.5465 7.998 2.066C7.081 1.542 6.133 1 5 1C3.5615 1 1.9575 2.103 1 2.886V0H0V13C0.000264738 13.2651 0.105707 13.5193 0.293186 13.7068C0.480665 13.8943 0.734865 13.9997 1 14H14V2.307ZM1 9.147C1.937 7.688 3.78 5.5 5 5.5C5.819 5.5 6.48 6.051 7.18 6.6345C7.9485 7.2745 8.819 8 10 8C11.118 7.94638 12.1809 7.49837 13 6.7355V9.2135C12.0781 9.71383 11.0488 9.98368 10 10C9.19775 9.97862 8.40531 9.81806 7.658 9.5255C6.80921 9.19742 5.90978 9.0196 5 9C3.5365 9 1.966 10.4795 1 11.579V9.147ZM5 2C5.867 2 6.661 2.4535 7.502 2.934C8.419 3.458 9.367 4 10.5 4C11.3438 3.98583 12.1829 3.87204 13 3.661V5.3215C12.6585 5.723 11.458 7 10 7C9.181 7 8.52 6.449 7.82 5.8655C7.0515 5.2255 6.181 4.5 5 4.5C3.532 4.5 1.9685 6.17 1 7.4225V4.212C1.773 3.483 3.6295 2 5 2ZM1.1245 13C1.931 11.9545 3.705 10 5 10C5.80225 10.0214 6.59469 10.1819 7.342 10.4745C8.19079 10.8026 9.09022 10.9804 10 11C11.036 10.9901 12.0582 10.7618 13 10.33V13H1.1245Z" fill="#E77C40"/>
</svg>
