<svg width="16" height="12" viewBox="0 0 16 12" fill="none" xmlns="http://www.w3.org/2000/svg">
<path d="M0 6C0 6 3 0.5 8 0.5C13 0.5 16 6 16 6C16 6 13 11.5 8 11.5C3 11.5 0 6 0 6ZM8 9.5C8.92826 9.5 9.8185 9.13125 10.4749 8.47487C11.1313 7.8185 11.5 6.92826 11.5 6C11.5 5.07174 11.1313 4.1815 10.4749 3.52513C9.8185 2.86875 8.92826 2.5 8 2.5C7.07174 2.5 6.1815 2.86875 5.52513 3.52513C4.86875 4.1815 4.5 5.07174 4.5 6C4.5 6.92826 4.86875 7.8185 5.52513 8.47487C6.1815 9.13125 7.07174 9.5 8 9.5V9.5Z" fill="black"/>
</svg>
