<svg width="20" height="20" viewBox="0 0 20 20" fill="none" xmlns="http://www.w3.org/2000/svg">
<path d="M12.5 10C12.5 10.663 12.2366 11.2989 11.7678 11.7678C11.2989 12.2366 10.663 12.5 10 12.5C9.33696 12.5 8.70107 12.2366 8.23223 11.7678C7.76339 11.2989 7.5 10.663 7.5 10C7.5 9.33696 7.76339 8.70107 8.23223 8.23223C8.70107 7.76339 9.33696 7.5 10 7.5C10.663 7.5 11.2989 7.76339 11.7678 8.23223C12.2366 8.70107 12.5 9.33696 12.5 10Z" fill="black"/>
<path d="M2 10C2 10 5 4.5 10 4.5C15 4.5 18 10 18 10C18 10 15 15.5 10 15.5C5 15.5 2 10 2 10ZM10 13.5C10.9283 13.5 11.8185 13.1313 12.4749 12.4749C13.1313 11.8185 13.5 10.9283 13.5 10C13.5 9.07174 13.1313 8.1815 12.4749 7.52513C11.8185 6.86875 10.9283 6.5 10 6.5C9.07174 6.5 8.1815 6.86875 7.52513 7.52513C6.86875 8.1815 6.5 9.07174 6.5 10C6.5 10.9283 6.86875 11.8185 7.52513 12.4749C8.1815 13.1313 9.07174 13.5 10 13.5Z" fill="black"/>
</svg>
