<svg width="20" height="20" viewBox="0 0 20 20" fill="none" xmlns="http://www.w3.org/2000/svg">
<path d="M10.0009 5.95324L8.63651 4.55662L8.63594 4.55605C8.28804 4.20177 7.87304 3.92037 7.41517 3.72827C6.95731 3.53617 6.46575 3.43723 5.96922 3.43723C5.47269 3.43723 4.98113 3.53617 4.52326 3.72827C4.06544 3.92035 3.65047 4.20172 3.3026 4.55595C2.58865 5.28087 2.18846 6.25752 2.18846 7.275C2.18846 8.29259 2.58874 9.26935 3.30284 9.9943L3.30313 9.99459L9.77812 16.5508L10.0005 16.776L10.2228 16.5508L16.6978 9.99459L16.6981 9.9943C17.4122 9.26935 17.8125 8.29259 17.8125 7.275C17.8125 6.25753 17.4123 5.28088 16.6983 4.55595C16.3506 4.20148 15.9357 3.91997 15.4778 3.72791C15.02 3.53591 14.5286 3.43718 14.0322 3.4375C14.0319 3.4375 14.0317 3.4375 14.0315 3.4375L14.0317 3.75M10.0009 5.95324L11.3578 4.56949L11.3586 4.5687L11.5817 4.7875M10.0009 5.95324L11.357 4.57036M10.0009 5.95324L11.357 4.57036M14.0317 3.75C13.5746 3.74935 13.122 3.84089 12.701 4.01915C12.2801 4.19741 11.8994 4.45874 11.5817 4.7875M14.0317 3.75C14.4868 3.74962 14.9373 3.84008 15.3569 4.01609C15.7766 4.1921 16.1569 4.45011 16.4755 4.775L14.0317 3.75ZM11.5817 4.7875L11.357 4.57036M11.5817 4.7875L11.357 4.57036M14.0316 2.8125L14.0315 2.8125C13.4516 2.81201 12.8774 2.9273 12.3427 3.15161C11.8079 3.37593 11.3233 3.70475 10.9173 4.11879L10.9162 4.11998L10.2224 4.81998L10.0005 5.04394L9.77851 4.81998L9.08476 4.11998L9.08392 4.11913C8.67735 3.70575 8.19255 3.37744 7.6578 3.15333C7.12305 2.92923 6.54903 2.81381 5.96922 2.81381C5.38941 2.81381 4.81539 2.92923 4.28064 3.15333C3.7459 3.37744 3.26111 3.70574 2.85454 4.1191L14.0316 2.8125ZM14.0316 2.8125C14.6115 2.81266 15.1856 2.92827 15.7204 3.15259C16.2551 3.37691 16.7399 3.70544 17.1463 4.11904C17.9752 4.96287 18.4397 6.09841 18.4397 7.28125C18.4397 8.46391 17.9754 9.59929 17.1467 10.4431C17.1466 10.4432 17.1464 10.4434 17.1463 10.4435L10.0005 17.6802M14.0316 2.8125L10.0005 17.6802M10.0005 17.6802L2.85465 10.4435C2.85454 10.4434 2.85444 10.4433 2.85433 10.4432C2.02561 9.59939 1.56128 8.46396 1.56128 7.28125C1.56128 6.09846 2.02568 4.96295 2.85452 4.11913L10.0005 17.6802Z" fill="#BDBDBD" stroke="#252B42" stroke-width="0.625"/>
</svg>
