<svg width="20" height="20" viewBox="0 0 20 20" fill="none" xmlns="http://www.w3.org/2000/svg">
<path d="M0 1.63333C0 1.46536 0.0667281 1.30427 0.185505 1.1855C0.304281 1.06673 0.465377 1 0.633353 1H2.53341C2.67469 1.00004 2.8119 1.04731 2.92322 1.1343C3.03454 1.22129 3.11357 1.34299 3.14776 1.48007L3.66078 3.53333H18.3672C18.4602 3.53342 18.5521 3.55398 18.6362 3.59356C18.7204 3.63315 18.7948 3.69077 18.8541 3.76235C18.9135 3.83393 18.9564 3.9177 18.9797 4.00772C19.0031 4.09774 19.0063 4.19179 18.9892 4.2832L17.0891 14.4165C17.062 14.5617 16.9849 14.6927 16.8714 14.7871C16.7578 14.8815 16.6148 14.9332 16.4672 14.9333H5.06682C4.91917 14.9332 4.7762 14.8815 4.66263 14.7871C4.54906 14.6927 4.47204 14.5617 4.44487 14.4165L2.54608 4.3022L2.0394 2.26667H0.633353C0.465377 2.26667 0.304281 2.19994 0.185505 2.08117C0.0667281 1.96239 0 1.8013 0 1.63333ZM3.92932 4.8L5.59251 13.6667H15.9415L17.6047 4.8H3.92932ZM6.33353 14.9333C5.66163 14.9333 5.01724 15.2002 4.54214 15.6753C4.06703 16.1504 3.80012 16.7948 3.80012 17.4667C3.80012 18.1385 4.06703 18.7829 4.54214 19.258C5.01724 19.7331 5.66163 20 6.33353 20C7.00543 20 7.64981 19.7331 8.12492 19.258C8.60003 18.7829 8.86694 18.1385 8.86694 17.4667C8.86694 16.7948 8.60003 16.1504 8.12492 15.6753C7.64981 15.2002 7.00543 14.9333 6.33353 14.9333ZM15.2005 14.9333C14.5286 14.9333 13.8842 15.2002 13.4091 15.6753C12.934 16.1504 12.6671 16.7948 12.6671 17.4667C12.6671 18.1385 12.934 18.7829 13.4091 19.258C13.8842 19.7331 14.5286 20 15.2005 20C15.8724 20 16.5168 19.7331 16.9919 19.258C17.467 18.7829 17.7339 18.1385 17.7339 17.4667C17.7339 16.7948 17.467 16.1504 16.9919 15.6753C16.5168 15.2002 15.8724 14.9333 15.2005 14.9333ZM6.33353 16.2C6.66948 16.2 6.99167 16.3335 7.22922 16.571C7.46678 16.8085 7.60023 17.1307 7.60023 17.4667C7.60023 17.8026 7.46678 18.1248 7.22922 18.3623C6.99167 18.5999 6.66948 18.7333 6.33353 18.7333C5.99758 18.7333 5.67539 18.5999 5.43783 18.3623C5.20028 18.1248 5.06682 17.8026 5.06682 17.4667C5.06682 17.1307 5.20028 16.8085 5.43783 16.571C5.67539 16.3335 5.99758 16.2 6.33353 16.2ZM15.2005 16.2C15.5364 16.2 15.8586 16.3335 16.0962 16.571C16.3337 16.8085 16.4672 17.1307 16.4672 17.4667C16.4672 17.8026 16.3337 18.1248 16.0962 18.3623C15.8586 18.5999 15.5364 18.7333 15.2005 18.7333C14.8645 18.7333 14.5423 18.5999 14.3048 18.3623C14.0672 18.1248 13.9338 17.8026 13.9338 17.4667C13.9338 17.1307 14.0672 16.8085 14.3048 16.571C14.5423 16.3335 14.8645 16.2 15.2005 16.2Z" fill="#252B42"/>
</svg>
