<svg width="18" height="17" viewBox="0 0 18 17" fill="none" xmlns="http://www.w3.org/2000/svg">
<path d="M9.00089 3.95324L7.6365 2.55662L7.63594 2.55605C7.28804 2.20177 6.87304 1.92037 6.41517 1.72827C5.95731 1.53617 5.46575 1.43723 4.96922 1.43723C4.47269 1.43723 3.98113 1.53617 3.52326 1.72827C3.06544 1.92035 2.65047 2.20172 2.3026 2.55595C1.58865 3.28087 1.18846 4.25752 1.18846 5.275C1.18846 6.29259 1.58874 7.26935 2.30284 7.9943L2.30313 7.99459L8.77812 14.5508L9.00047 14.776L9.22281 14.5508L15.6978 7.99459L15.6981 7.9943C16.4122 7.26935 16.8125 6.29259 16.8125 5.275C16.8125 4.25753 16.4123 3.28088 15.6983 2.55595C15.3506 2.20148 14.9357 1.91997 14.4778 1.72791C14.02 1.53591 13.5286 1.43718 13.0322 1.4375C13.0319 1.4375 13.0317 1.4375 13.0315 1.4375L13.0317 1.75C12.5746 1.74935 12.122 1.84089 11.701 2.01915C11.2801 2.19741 10.8994 2.45874 10.5817 2.7875L9.00089 3.95324ZM9.00089 3.95324L10.357 2.57036C10.3573 2.57007 10.3576 2.56977 10.3578 2.56948L9.00089 3.95324ZM9.91618 2.11998L9.91735 2.11879C10.3233 1.70475 10.8079 1.37593 11.3427 1.15161C11.8774 0.927301 12.4516 0.81201 13.0315 0.812502L13.0317 0.5L13.0316 0.812502C13.6115 0.812661 14.1856 0.92827 14.7204 1.15259C15.2551 1.3769 15.7398 1.70542 16.1463 2.11899C16.9752 2.96282 17.4397 4.09839 17.4397 5.28125C17.4397 6.46399 16.9753 7.59945 16.1465 8.44325C16.1465 8.44334 16.1464 8.44342 16.1463 8.44351L9.00047 15.6802L1.85465 8.44351C1.85455 8.44341 1.85445 8.44331 1.85435 8.44321C1.02562 7.59941 0.561279 6.46397 0.561279 5.28125C0.561279 4.09839 1.02573 2.96282 1.85465 2.11899C2.2612 1.70568 2.74594 1.37742 3.28064 1.15333C3.81539 0.929228 4.38941 0.813811 4.96922 0.813811C5.54903 0.813811 6.12305 0.929228 6.6578 1.15333C7.19255 1.37744 7.67735 1.70575 8.08392 2.11913L8.08476 2.11998L8.77851 2.81998L9.00047 3.04394L9.22243 2.81998L9.91618 2.11998Z" fill="#BDBDBD" stroke="#252B42" stroke-width="0.625"/>
</svg>
