<svg width="24" height="20" viewBox="0 0 24 20" fill="none" xmlns="http://www.w3.org/2000/svg">
<path d="M8.41075 19C16.713 19 21.2546 12.0731 21.2546 6.07669C21.2546 5.88285 21.2546 5.68625 21.2464 5.49241C22.1306 4.84789 22.8937 4.04993 23.5 3.13592C22.6741 3.50262 21.7988 3.7443 20.9026 3.85312C21.8466 3.28495 22.5536 2.391 22.8923 1.3374C22.0054 1.86647 21.0346 2.23787 20.0226 2.43534C19.3423 1.70572 18.4419 1.22237 17.4611 1.06016C16.4803 0.897946 15.4737 1.06592 14.5973 1.53807C13.7209 2.01023 13.0236 2.7602 12.6134 3.67182C12.2031 4.58345 12.1029 5.60585 12.3281 6.58066C10.5334 6.49005 8.77762 6.02057 7.17468 5.20269C5.57175 4.3848 4.15744 3.23678 3.0235 1.83307C2.44784 2.83421 2.27216 4.01843 2.53214 5.14526C2.79211 6.27209 3.46825 7.25705 4.42325 7.90013C3.70762 7.87565 3.00772 7.68215 2.38 7.33524V7.39754C2.38123 8.44631 2.74205 9.46247 3.40145 10.2743C4.06086 11.0861 4.9784 11.6438 5.999 11.853C5.61161 11.9605 5.21144 12.014 4.80963 12.0122C4.52635 12.0131 4.24365 11.9867 3.96537 11.9333C4.25383 12.8361 4.8155 13.6254 5.57171 14.1908C6.32793 14.7561 7.24081 15.0691 8.1825 15.0859C6.58276 16.3511 4.60668 17.0373 2.5725 17.034C2.21407 17.0355 1.85588 17.0147 1.5 16.9716C3.56458 18.297 5.96228 19.0008 8.41075 19Z" fill="white"/>
</svg>
