<svg width="142" height="98" viewBox="0 0 142 98" fill="none" xmlns="http://www.w3.org/2000/svg">
<path d="M141.317 0.119687L136.746 25.831C135.412 33.6397 132.651 41.9244 128.461 50.6853C124.176 59.5414 118.7 68.0642 112.034 76.2538C105.273 84.5385 97.512 91.7282 88.7511 97.8227L73.3243 82.9673C80.4664 74.3968 87.0847 65.4455 93.1792 56.1132C99.1785 46.8762 103.035 36.9726 104.749 26.4024L109.32 0.119684L141.317 0.119687ZM68.1821 0.119681L63.6112 25.831C62.278 33.6396 59.5164 41.9244 55.3264 50.6853C51.0412 59.5414 45.5656 68.0642 38.8997 76.2538C32.1386 84.5385 24.3776 91.7282 15.6167 97.8227L0.189896 82.9673C7.33193 74.3968 13.9502 65.4455 20.0448 56.1132C26.0441 46.8762 29.9008 36.9726 31.6149 26.4024L36.1858 0.119678L68.1821 0.119681Z" fill="white"/>
</svg>
